<svg xmlns="http://www.w3.org/2000/svg" width="25" height="25" viewBox="0 0 25 25"><defs><style>.a{fill:#707070;}</style></defs><g transform="translate(-3 -3)"><g transform="translate(3 3)"><path class="a" d="M21.75,15.5a6.25,6.25,0,0,0-3.472-5.6v3.069l3.4,3.4A5.878,5.878,0,0,0,21.75,15.5Zm3.472,0a9.5,9.5,0,0,1-.75,3.667l2.1,2.1A12.217,12.217,0,0,0,28,15.5,12.5,12.5,0,0,0,18.278,3.319V6.181A9.729,9.729,0,0,1,25.222,15.5ZM4.764,3,3,4.764l6.569,6.569H3v8.333H8.556L15.5,26.611V17.264l5.9,5.9a9.616,9.616,0,0,1-3.125,1.639v2.861A12.486,12.486,0,0,0,23.4,25.153L26.236,28,28,26.236l-12.5-12.5ZM15.5,4.389l-2.9,2.9,2.9,2.9Z" transform="translate(-3 -3)"/></g></g></svg>