<svg xmlns="http://www.w3.org/2000/svg" width="34" height="34" viewBox="0 0 34 34"><defs><style>.a{fill:#fff;}</style></defs><path class="a" d="M34,20.188V13.813H29.332a12.624,12.624,0,0,0-1.358-3.279l3.3-3.3L26.767,2.725l-3.3,3.3a12.661,12.661,0,0,0-3.279-1.358V0H13.813V4.668a12.624,12.624,0,0,0-3.279,1.358l-3.3-3.3L2.725,7.233l3.3,3.3a12.661,12.661,0,0,0-1.358,3.279H0v6.375H4.668a12.624,12.624,0,0,0,1.358,3.279l-3.3,3.3,4.508,4.508,3.3-3.3a12.639,12.639,0,0,0,3.279,1.358V34h6.375V29.332a12.624,12.624,0,0,0,3.279-1.358l3.3,3.3,4.508-4.508-3.3-3.3a12.676,12.676,0,0,0,1.358-3.279H34ZM17,22.313A5.313,5.313,0,1,1,22.313,17,5.313,5.313,0,0,1,17,22.313Z"/></svg>