<svg xmlns="http://www.w3.org/2000/svg" width="32" height="33.524" viewBox="0 0 32 33.524"><defs><style>.a{fill:#fff;}</style></defs><g transform="translate(-3 -2)"><g transform="translate(3 2)"><path class="a" d="M33.476,12H4.524A1.458,1.458,0,0,0,3,13.384V34.14a1.458,1.458,0,0,0,1.524,1.384H33.476A1.458,1.458,0,0,0,35,34.14V13.384A1.458,1.458,0,0,0,33.476,12ZM25.857,22.378a.729.729,0,0,1-.762.692H12.9a.729.729,0,0,1-.762-.692V19.611a.765.765,0,0,1,1.524,0v2.076H24.333V19.611a.765.765,0,0,1,1.524,0Z" transform="translate(-3 -2)"/><path class="a" d="M30.294,6H7.706C7.316,6,7,6.448,7,7v3H31V7C31,6.448,30.684,6,30.294,6Z" transform="translate(-3 -2)"/><path class="a" d="M26.385,2H11.615C11.276,2,11,2.448,11,3V4H27V3C27,2.448,26.724,2,26.385,2Z" transform="translate(-3 -2)"/></g></g></svg>